<svg width="77" height="64" viewBox="0 0 77 64" fill="none" xmlns="http://www.w3.org/2000/svg">
<g clip-path="url(#clip0_1374_705)" filter="url(#filter0_d_1374_705)">
<path d="M43.1496 16.87L41.8396 15.87C41.6348 15.7043 41.3729 15.626 41.1108 15.6522C40.8486 15.6784 40.6074 15.807 40.4396 16.01L22.3096 36.83L22.5896 37.14L27.0796 33C26.9299 32.9398 26.8061 32.8291 26.7297 32.6871C26.6532 32.5451 26.6289 32.3807 26.661 32.2227C26.6931 32.0646 26.7795 31.9227 26.9053 31.8218C27.0311 31.7208 27.1883 31.6671 27.3496 31.67C27.495 31.67 27.6366 31.7166 27.7536 31.803C27.8706 31.8894 27.9568 32.011 27.9996 32.15L33.9196 26.66C34.0102 26.587 34.1231 26.5472 34.2396 26.5472C34.356 26.5472 34.4689 26.587 34.5596 26.66L34.8596 26.88C34.9611 26.9528 35.0861 26.9849 35.2101 26.9701C35.3341 26.9553 35.4481 26.8946 35.5296 26.8L43.2696 18.12C43.3518 18.0339 43.4146 17.931 43.4536 17.8184C43.4925 17.7058 43.5068 17.5862 43.4954 17.4676C43.484 17.349 43.4473 17.2343 43.3876 17.1312C43.3279 17.028 43.2467 16.939 43.1496 16.87Z" fill="white"/>
<path d="M51.6703 22.73C47.7028 25.553 43.2581 27.6364 38.5503 28.88C33.8777 30.0683 29.0965 30.7786 24.2803 31C24.3773 31.7102 24.5516 32.4077 24.8003 33.08C27.5203 35.54 48.0003 31.34 52.0003 26.48C52.8503 25.47 51.6703 22.73 51.6703 22.73ZM27.3503 33C27.2158 33 27.0843 32.9601 26.9725 32.8854C26.8607 32.8107 26.7735 32.7045 26.722 32.5802C26.6706 32.4559 26.6571 32.3192 26.6833 32.1873C26.7096 32.0554 26.7743 31.9342 26.8694 31.8391C26.9645 31.744 27.0857 31.6793 27.2176 31.653C27.3495 31.6268 27.4862 31.6403 27.6105 31.6917C27.7348 31.7432 27.841 31.8304 27.9157 31.9422C27.9904 32.054 28.0303 32.1855 28.0303 32.32C28.0316 32.4097 28.015 32.4987 27.9813 32.5818C27.9476 32.6649 27.8975 32.7404 27.8341 32.8038C27.7707 32.8672 27.6952 32.9173 27.6121 32.951C27.529 32.9847 27.4399 33.0013 27.3503 33Z" fill="white"/>
<path d="M8.0003 21.2899L8.1603 20.5999L10.7603 21.1899C10.9748 21.5861 11.1074 22.0214 11.1503 22.4699C11.1999 22.945 11.1695 23.425 11.0603 23.8899C10.9309 24.5352 10.6343 25.1352 10.2003 25.6299C9.78739 26.097 9.25497 26.4428 8.6603 26.6299C8.04739 26.8189 7.39551 26.8431 6.7703 26.6999C6.14372 26.5646 5.56617 26.2603 5.1003 25.8199C4.64157 25.3969 4.31216 24.8526 4.1503 24.2499C3.97073 23.5954 3.97073 22.9045 4.1503 22.2499C4.25778 21.76 4.45073 21.2929 4.7203 20.8699C4.97544 20.4853 5.31814 20.1665 5.7203 19.9399L6.0803 20.4899C5.7356 20.7016 5.43972 20.9839 5.21218 21.3183C4.98464 21.6527 4.83063 22.0316 4.7603 22.4299C4.63629 22.9473 4.64661 23.4877 4.7903 23.9999C4.92467 24.4863 5.1912 24.9259 5.5603 25.2699C5.93968 25.6367 6.41433 25.8896 6.9303 25.9999C7.43063 26.1404 7.95997 26.1404 8.4603 25.9999C8.93959 25.8417 9.37007 25.5628 9.7103 25.1899C10.0599 24.7873 10.3009 24.3019 10.4103 23.7799C10.5748 23.1468 10.5328 22.4776 10.2903 21.8699L8.0003 21.2899Z" fill="white"/>
<path d="M13.6599 15.0001L11.3299 18.1101L12.3299 19.9001L11.8699 20.5201L8.16992 13.7701L8.59992 13.1801L16.1299 14.8001L15.6599 15.4201L13.6599 15.0001ZM12.9999 14.8401L8.99992 13.9401L10.9999 17.5301L12.9999 14.8401Z" fill="white"/>
<path d="M13 8.54998L13.6 8.09998L17.41 13.2L20.55 10.85L20.93 11.36L17.2 14.15L13 8.54998Z" fill="white"/>
<path d="M19.2998 4.37996L19.9698 4.07996L22.6098 9.85996L26.1798 8.23996L26.4398 8.81996L22.1998 10.75L19.2998 4.37996Z" fill="white"/>
<path d="M32.48 6.68003L32.63 7.31003L27.81 8.44003L26.21 1.62003L30.89 0.530029L31.03 1.15003L27.03 2.08003L27.6 4.50003L31.12 3.67003L31.27 4.29003L27.74 5.11003L28.34 7.64003L32.48 6.68003Z" fill="white"/>
<path d="M39.3498 6.92997L37.6798 4.72997C37.4933 4.74029 37.3064 4.74029 37.1198 4.72997L35.2398 4.78997L35.3098 7.00997H34.5698L34.3398 0.00996866L36.9998 -3.1339e-05C37.7519 -0.0694894 38.504 0.132721 39.1198 0.569969C39.3794 0.778962 39.588 1.04418 39.7301 1.3456C39.8721 1.64702 39.9439 1.97678 39.9398 2.30997C39.969 2.80416 39.8394 3.29473 39.5698 3.70997C39.2825 4.10853 38.8765 4.40603 38.4098 4.55997L40.1598 6.89997L39.3498 6.92997ZM38.6498 3.63997C38.8296 3.47531 38.9691 3.27154 39.0575 3.04439C39.1459 2.81725 39.1809 2.57281 39.1598 2.32997C39.165 2.08584 39.1146 1.84374 39.0124 1.62198C38.9101 1.40022 38.7588 1.20461 38.5698 1.04997C38.1089 0.737448 37.5547 0.592707 36.9998 0.639969L35.0998 0.709969L35.2198 4.20997L37.0798 4.14997C37.647 4.17096 38.2033 3.99026 38.6498 3.63997Z" fill="white"/>
<path d="M44.6396 5.07L44.2796 7.46L43.5496 7.35L43.9196 5L41.8496 0L42.6296 0.12L44.3996 4.38L47.3996 0.85L48.0996 1L44.6396 5.07Z" fill="white"/>
<path d="M54.5298 4.65005L55.3998 5.78005L55.0198 6.08005L54.1498 4.92005L53.5998 6.23005L53.1798 6.05005L53.7398 4.74005L52.2998 4.93005V4.45005L53.7198 4.29005L52.8398 3.16005L53.2298 2.86005L53.9998 4.00005L54.5398 2.68005L54.9698 2.86005L54.4598 4.20005L55.8998 4.00005V4.49005L54.5298 4.65005Z" fill="white"/>
<path d="M57.8704 12.71C57.6343 12.346 57.487 11.9315 57.4404 11.5L58.0304 11.24C58.0747 11.6364 58.2043 12.0185 58.4104 12.36C58.6338 12.743 58.9253 13.0819 59.2704 13.36C59.6269 13.7013 60.0817 13.9217 60.5704 13.99C60.747 14.0064 60.9249 13.9794 61.0887 13.9115C61.2525 13.8435 61.3973 13.7366 61.5104 13.6C61.5934 13.5085 61.6566 13.4009 61.6962 13.284C61.7357 13.167 61.7508 13.0431 61.7404 12.92C61.7074 12.6763 61.6257 12.4417 61.5004 12.23C61.3125 11.9231 61.1089 11.626 60.8904 11.34C60.6242 10.9912 60.3836 10.6236 60.1704 10.24C60.0075 9.95296 59.9182 9.63003 59.9104 9.30004C59.9097 8.92946 60.049 8.5723 60.3004 8.30004C60.5184 8.03617 60.8059 7.83869 61.1304 7.73004C61.493 7.62531 61.8778 7.62531 62.2404 7.73004C62.7076 7.88282 63.1394 8.12763 63.5104 8.45004C63.8183 8.70611 64.0907 9.00205 64.3204 9.33004C64.5329 9.6342 64.6918 9.97239 64.7904 10.33L64.2204 10.63C64.121 10.2967 63.9727 9.97991 63.7804 9.69004C63.5889 9.43118 63.3635 9.19913 63.1104 9.00004C62.7593 8.66028 62.3058 8.44587 61.8204 8.39004C61.642 8.37512 61.4627 8.40478 61.2987 8.47635C61.1346 8.54792 60.9909 8.65915 60.8804 8.80004C60.7954 8.89013 60.7308 8.99753 60.6911 9.11489C60.6514 9.23226 60.6375 9.35681 60.6504 9.48004C60.6738 9.73221 60.756 9.97538 60.8904 10.19C61.0304 10.42 61.2304 10.72 61.5004 11.08C61.7681 11.4208 62.0088 11.7819 62.2204 12.16C62.3868 12.4462 62.4796 12.7692 62.4904 13.1C62.4911 13.4706 62.3518 13.8278 62.1004 14.1C61.8817 14.3675 61.5898 14.5656 61.2604 14.67C60.8985 14.7793 60.5124 14.7793 60.1504 14.67C59.6801 14.5177 59.2449 14.2729 58.8704 13.95C58.4668 13.5987 58.1283 13.179 57.8704 12.71Z" fill="white"/>
<path d="M67.9297 14.17L66.5197 12.17L67.0397 11.8L70.2897 16.44L69.7697 16.81L68.3597 14.81L63.1397 18.46L62.7197 17.85L67.9297 14.17Z" fill="white"/>
<path d="M65.6902 22.39C65.8687 21.7856 66.2156 21.2445 66.6902 20.83C67.1545 20.4141 67.7202 20.1279 68.3302 20C68.9521 19.8572 69.6007 19.8814 70.2102 20.07C70.7986 20.2645 71.3259 20.6092 71.7402 21.07C72.171 21.5656 72.4641 22.1656 72.5902 22.81C72.7559 23.4426 72.7559 24.1073 72.5902 24.74C72.4068 25.3421 72.0608 25.8819 71.5902 26.3C71.1131 26.727 70.5335 27.0233 69.9079 27.16C69.2823 27.2967 68.632 27.2691 68.0202 27.08C67.4274 26.8949 66.8977 26.5487 66.4902 26.08C66.0614 25.587 65.7684 24.9907 65.6402 24.35C65.4875 23.7033 65.5047 23.028 65.6902 22.39ZM67.0002 25.57C67.3341 25.9502 67.7668 26.2306 68.2502 26.38C68.7485 26.5245 69.2752 26.5417 69.7818 26.4298C70.2885 26.318 70.759 26.0808 71.1502 25.74C71.5193 25.4004 71.7919 24.9691 71.9402 24.49C72.0797 23.9841 72.0933 23.4517 71.98 22.9393C71.8667 22.4269 71.6299 21.95 71.2902 21.55C70.9417 21.1679 70.4957 20.8879 70.0002 20.74C69.4956 20.606 68.9648 20.606 68.4602 20.74C67.9511 20.8377 67.4798 21.0768 67.1002 21.43C66.7277 21.7708 66.4547 22.2062 66.3102 22.69C66.1744 23.1977 66.1744 23.7322 66.3102 24.24C66.4197 24.7361 66.6577 25.1947 67.0002 25.57Z" fill="white"/>
<path d="M64.9302 34L67.5202 33C67.5202 32.82 67.5802 32.64 67.6302 32.45L68.1202 30.64L66.0002 30.09L66.1902 29.38L72.9502 31.19L72.2702 33.72C72.1171 34.4582 71.7058 35.1177 71.1102 35.58C70.8366 35.7701 70.5227 35.8942 70.1931 35.9428C69.8635 35.9914 69.5271 35.963 69.2102 35.86C68.7277 35.7553 68.2952 35.4892 67.9843 35.1056C67.6734 34.722 67.5027 34.2438 67.5002 33.75L64.7402 34.75L64.9302 34ZM68.2802 34.28C68.3974 34.4925 68.5563 34.6792 68.7474 34.8287C68.9385 34.9782 69.1579 35.0876 69.3924 35.1502C69.6268 35.2128 69.8715 35.2273 70.1118 35.1929C70.352 35.1585 70.5828 35.0759 70.7902 34.95C71.2316 34.5955 71.5328 34.0958 71.6402 33.54L72.1202 31.74L68.7302 30.83L68.2502 32.63C68.0657 33.1664 68.0764 33.7507 68.2802 34.28Z" fill="white"/>
<path d="M61.3401 40.44L60.8301 40.05L63.8301 36.1L69.4101 40.33L66.5101 44.16L66.0001 43.77L68.4501 40.54L66.4501 39.03L64.2601 41.92L63.7601 41.54L66.0001 38.65L63.9301 37.08L61.3401 40.44Z" fill="white"/>
<path d="M59.0003 48.41L57.5703 48.49V48.01L59.0003 48L58.2303 46.81L58.6203 46.56L59.3803 47.76L60.0003 46.42L60.4303 46.65L59.7503 47.91L61.1803 47.83V48.32H59.7303L60.5003 49.51L60.1103 49.76L59.3503 48.56L58.6903 49.86L58.2703 49.62L59.0003 48.41Z" fill="white"/>
<path d="M46.0002 47.61L47.2102 48.28C47.4131 47.8904 47.6962 47.5481 48.0409 47.2757C48.3857 47.0034 48.7842 46.8072 49.2102 46.7C49.6077 46.5761 50.0257 46.5319 50.4402 46.57C50.7999 46.5976 51.1455 46.722 51.4402 46.93C51.7067 47.1309 51.9027 47.4109 52.0002 47.73C52.1208 48.1248 52.0995 48.5493 51.9402 48.93C51.6893 49.4474 51.351 49.9176 50.9402 50.32C51.2699 50.4972 51.5757 50.7156 51.8502 50.97C52.0388 51.1649 52.1792 51.4012 52.2602 51.66C52.3115 51.8618 52.3147 52.0728 52.2695 52.276C52.2243 52.4792 52.1321 52.669 52.0002 52.83C51.7333 53.2147 51.335 53.4885 50.8802 53.6C50.4809 53.7523 50.0395 53.7523 49.6402 53.6C49.4627 53.5237 49.3052 53.4072 49.1803 53.2597C49.0554 53.1122 48.9664 52.9377 48.9202 52.75C48.8154 52.4199 48.8404 52.0623 48.9902 51.75C49.2198 51.2954 49.5202 50.8802 49.8802 50.52L47.4702 49.18C47.3783 49.651 47.358 50.1331 47.4102 50.61H46.8002C46.7592 50.0227 46.827 49.4328 47.0002 48.87L45.7402 48.17L46.0002 47.61ZM47.7402 48.61L50.3902 50.08C50.7375 49.7484 51.0251 49.3593 51.2402 48.93C51.3501 48.6401 51.3501 48.32 51.2402 48.03C51.1949 47.8568 51.1072 47.6975 50.985 47.5666C50.8628 47.4357 50.7099 47.3372 50.5402 47.28C50.1251 47.1398 49.6754 47.1398 49.2602 47.28C48.921 47.3695 48.6055 47.5323 48.336 47.7569C48.0664 47.9815 47.8494 48.2625 47.7002 48.58L47.7402 48.61ZM51.5002 52.61C51.5656 52.4995 51.6065 52.3763 51.6203 52.2487C51.6341 52.1211 51.6204 51.9919 51.5802 51.87C51.519 51.6726 51.4089 51.4937 51.2602 51.35C51.0057 51.1353 50.7272 50.9508 50.4302 50.8C50.127 51.0998 49.8617 51.4357 49.6402 51.8C49.5193 52.0272 49.4907 52.2923 49.5602 52.54C49.592 52.6545 49.6476 52.7609 49.7234 52.8522C49.7993 52.9436 49.8936 53.0178 50.0002 53.07C50.2548 53.166 50.5356 53.166 50.7902 53.07C51.0621 52.9975 51.2995 52.831 51.4602 52.6L51.5002 52.61Z" fill="white"/>
<path d="M33.8096 55.3199L33.9496 48.3199H34.6596L34.5496 53.9199L37.3896 49.2599H37.7396L40.3996 53.9999L40.4996 48.4299H41.2096L41.0796 55.4299H40.4696L37.5296 50.1999L34.4196 55.3299L33.8096 55.3199Z" fill="white"/>
<path d="M30.33 48C30.7873 48.4358 31.1145 48.9901 31.2752 49.601C31.4359 50.212 31.4237 50.8556 31.24 51.46C31.0757 52.0789 30.7475 52.642 30.29 53.09C29.8454 53.527 29.2879 53.8317 28.68 53.97C28.0387 54.1147 27.3711 54.094 26.74 53.91C26.111 53.7564 25.5323 53.4429 25.06 53C24.6095 52.5697 24.2875 52.0227 24.13 51.42C23.9762 50.7969 23.9876 50.1446 24.1629 49.5273C24.3383 48.91 24.6716 48.3491 25.13 47.9C25.5667 47.4641 26.1123 47.1533 26.71 47C27.348 46.8557 28.0122 46.8763 28.64 47.06C29.2755 47.221 29.858 47.545 30.33 48ZM26.92 47.65C26.4308 47.7639 25.9837 48.0134 25.63 48.37C25.2616 48.7369 24.9991 49.1963 24.87 49.7C24.7305 50.2004 24.7305 50.7295 24.87 51.23C24.9879 51.7169 25.241 52.1606 25.6 52.51C25.9765 52.8782 26.4414 53.1433 26.95 53.28C27.4585 53.4095 27.9914 53.4095 28.5 53.28C28.9895 53.1596 29.4382 52.9111 29.8 52.56C30.1664 52.1916 30.4286 51.7327 30.56 51.23C30.6998 50.7262 30.6998 50.1938 30.56 49.69C30.432 49.2049 30.1765 48.7629 29.82 48.41C29.4415 48.0413 28.9723 47.7791 28.46 47.65C27.9561 47.5107 27.4239 47.5107 26.92 47.65Z" fill="white"/>
<path d="M19.3495 43L19.6195 45.75C19.7911 45.8233 19.958 45.9068 20.1195 46L21.7495 46.94L22.8495 45L23.4995 45.37L19.9995 51.4L17.7195 50.09C17.0456 49.7515 16.514 49.1844 16.2195 48.49C16.1108 48.1772 16.0742 47.8439 16.1123 47.5149C16.1504 47.1859 16.2622 46.8698 16.4395 46.59C16.672 46.1518 17.0405 45.8008 17.4895 45.59C17.9456 45.4011 18.4501 45.3626 18.9295 45.48L18.6395 42.54L19.3495 43ZM18.2095 46.16C17.9747 46.219 17.7541 46.3247 17.561 46.4708C17.368 46.617 17.2064 46.8006 17.086 47.0107C16.9655 47.2207 16.8887 47.4529 16.8601 47.6934C16.8315 47.9338 16.8517 48.1776 16.9195 48.41C17.154 48.9276 17.5603 49.3481 18.0695 49.6L19.6795 50.53L21.4295 47.53L19.8195 46.6C19.3568 46.2533 18.787 46.0799 18.2095 46.11V46.16Z" fill="white"/>
<path d="M13.43 38.31L13.88 37.86L17.33 41.41L12.33 46.29L9 42.85L9.46 42.4L12.29 45.31L14 43.58L11.52 41L12 40.54L14.53 43.14L16.39 41.33L13.43 38.31Z" fill="white"/>
<path d="M6.00035 34.38L6.24035 33L6.71035 33.07L6.44035 34.49L7.77035 34L7.93035 34.44L6.58035 34.9L7.69035 35.84L7.37035 36.2L6.30035 35.2L6.05035 36.62L5.57035 36.53L5.85035 35.11L4.51035 35.59L4.36035 35.2L5.70035 34.73L4.59035 33.8L4.92035 33.44L6.00035 34.38Z" fill="white"/>
</g>
<defs>
<filter id="filter0_d_1374_705" x="0" y="0" width="76.9297" height="63.46" filterUnits="userSpaceOnUse" color-interpolation-filters="sRGB">
<feFlood flood-opacity="0" result="BackgroundImageFix"/>
<feColorMatrix in="SourceAlpha" type="matrix" values="0 0 0 0 0 0 0 0 0 0 0 0 0 0 0 0 0 0 127 0" result="hardAlpha"/>
<feOffset dy="4"/>
<feGaussianBlur stdDeviation="2"/>
<feComposite in2="hardAlpha" operator="out"/>
<feColorMatrix type="matrix" values="0 0 0 0 0 0 0 0 0 0 0 0 0 0 0 0 0 0 0.25 0"/>
<feBlend mode="normal" in2="BackgroundImageFix" result="effect1_dropShadow_1374_705"/>
<feBlend mode="normal" in="SourceGraphic" in2="effect1_dropShadow_1374_705" result="shape"/>
</filter>
<clipPath id="clip0_1374_705">
<rect width="68.93" height="55.46" fill="white" transform="translate(4)"/>
</clipPath>
</defs>
</svg>
